<?xml version="1.0" encoding="UTF-8" standalone="no"?>
<svg width="101px" height="100px" viewBox="0 0 101 100" version="1.1" xmlns="http://www.w3.org/2000/svg" xmlns:xlink="http://www.w3.org/1999/xlink">
    <!-- Generator: Sketch 42 (36781) - http://www.bohemiancoding.com/sketch -->
    <title>noun_966559_cc</title>
    <desc>Created with Sketch.</desc>
    <defs></defs>
    <g id="Page-1" stroke="none" stroke-width="1" fill="none" fill-rule="evenodd">
        <g id="noun_966559_cc" fill-rule="nonzero" fill="#ef160d">
            <g id="se3">
                <path d="M39,76.45 C23.5226547,76.5390908 9.51951656,67.2848682 3.53382525,53.0115486 C-2.45186605,38.738229 0.761715986,22.2639641 11.6729624,11.2866759 C22.5842088,0.309387772 39.038782,-3.00354665 53.3479613,2.89590597 C67.6571406,8.79535859 76.995694,22.7423989 77,38.22 C77.0442882,59.2624329 60.0423171,76.3673108 39,76.45 Z M39,10.15 C27.6204548,10.052736 17.3073991,16.8332794 12.8860084,27.3192134 C8.46461763,37.8051475 10.8092539,49.9228027 18.8229308,58.0026846 C26.8366078,66.0825664 38.9345627,68.5268198 49.4565182,64.1918503 C59.9784738,59.8568809 66.843637,49.5999603 66.84,38.22 C66.8788243,22.7909989 54.4287984,10.2381172 39,10.15 L39,10.15 Z" id="Shape"></path>
                <rect id="Rectangle-path" transform="translate(75.230608, 74.233536) rotate(-45.000000) translate(-75.230608, -74.233536) " x="72.7306083" y="59.0285355" width="5" height="30.41"></rect>
                <rect id="Rectangle-path" transform="translate(83.503536, 82.506154) rotate(45.000000) translate(-83.503536, -82.506154) " x="61.6585355" y="75.4861544" width="43.69" height="14.04" rx="7.02"></rect>
            </g>
        </g>
    </g>
</svg>
